Coordinates
version=1
nRows=18
nColumns=19
inDegrees=yes

Units are S.I. units (second, meters, Newtons, ...)
If the header above contains a line with 'inDegrees', this indicates whether rotational values are in degrees (yes) or radians (no).

endheader
time	pelvis_tilt	pelvis_list	pelvis_rotation	pelvis_tx	pelvis_ty	pelvis_tz	hip_flexion_r	hip_adduction_r	hip_rotation_r	knee_angle_r	knee_angle_r_beta	ankle_angle_r	hip_flexion_l	hip_adduction_l	hip_rotation_l	knee_angle_l	knee_angle_l_beta	ankle_angle_l
     11.68000000	     -4.03631901	     -6.01868377	     -2.37974165	      2.50584222	      0.95331197	      1.08334005	     20.65981704	     11.14925954	    -11.35446925	      8.26226776	      0.14420378	      7.52980349	     -9.26296077	    -10.52357808	     -9.65435765	     46.44733750	      0.81065897	     -9.52332922
     11.68666667	     -3.04090504	     -6.54979498	     -2.50426074	      2.50545865	      0.94993178	      1.08347077	     19.92458638	     11.64868695	    -11.90094543	     10.16599765	      0.17743013	      7.17180204	     -9.39780813	    -11.32917600	     -9.30697595	     49.54870185	      0.86478799	     -8.72394605
     11.69333333	     -2.46986504	     -6.99412121	     -2.60204594	      2.50483000	      0.94570275	      1.08351854	     19.83650006	     11.95080532	    -12.62354205	     12.60450967	      0.21999019	      6.85430967	     -8.93041712	    -12.02736304	     -8.75311122	     52.76395830	      0.92090480	     -7.89264272
     11.70000000	     -1.36482252	     -7.63645749	     -2.82266500	      2.50426643	      0.94178168	      1.08366908	     19.08568854	     12.46541688	    -13.13380808	     15.05013920	      0.26267448	      6.54135470	     -9.14007850	    -12.95746947	     -8.64983680	     55.85036728	      0.97477280	     -7.07998374
     11.70666667	     -0.32970961	     -8.23310815	     -3.01362042	      2.50351969	      0.93752416	      1.08375487	     18.49302195	     12.85449229	    -13.72383671	     17.76695488	      0.31009186	      6.48474937	     -9.20225632	    -13.86241607	     -8.53817514	     58.92665006	      1.02846406	     -6.28557867
     11.71333333	      0.61562411	     -8.78940485	     -3.24097282	      2.50256803	      0.93301396	      1.08384946	     18.05265755	     13.15701680	    -14.25472174	     20.69229360	      0.36114865	      6.71815567	     -9.10954021	    -14.72303599	     -8.43739069	     61.97589159	      1.08168337	     -5.50187089
     11.72000000	      1.57473279	     -9.34545171	     -3.50093956	      2.50142769	      0.92842811	      1.08403826	     17.57088835	     13.45628242	    -14.64528337	     23.62964537	      0.41241511	      7.27016100	     -9.00331061	    -15.62189033	     -8.44418266	     64.96266649	      1.13381242	     -4.64521911
     11.72666667	      1.84109451	     -9.60032670	     -3.78263894	      2.49994501	      0.92313177	      1.08414027	     17.94729950	     13.40409287	    -15.00973355	     26.83042677	      0.46827929	      8.17374948	     -7.94239901	    -16.15333911	     -8.10025132	     67.97969151	      1.18646944	     -3.80060330
     11.73333333	      2.75142653	    -10.12870020	     -4.07947827	      2.49849852	      0.91875406	      1.08430983	     17.38802474	     13.70251302	    -15.07858346	     29.62374553	      0.51703190	      9.32146595	     -7.70443353	    -17.02104422	     -8.12741774	     70.74607415	      1.23475193	     -2.87039265
     11.74000000	      3.46135065	    -10.55479616	     -4.37494400	      2.49685740	      0.91444367	      1.08447420	     16.96948945	     13.93148026	    -14.97843965	     32.29494968	      0.56365320	     10.73429944	     -7.15781078	    -17.76291765	     -8.03230728	     73.40240318	      1.28111361	     -1.90853031
     11.74666667	      3.41638006	    -10.69500652	     -4.69836833	      2.49491564	      0.90963166	      1.08468321	     17.35231905	     13.91554359	    -14.80763197	     34.94194533	      0.60985199	     12.39268866	     -5.55537626	    -18.20474679	     -7.62545736	     76.07113994	      1.32769186	     -0.93565159
     11.75333333	      3.57774600	    -10.86455146	     -4.96710590	      2.49294474	      0.90560747	      1.08485166	     17.30133436	     13.98682592	    -14.47267097	     37.19864428	      0.64923882	     14.11187843	     -4.15797190	    -18.65622037	     -7.22175825	     78.48552804	      1.36983088	      0.03000037
     11.76000000	      4.08418371	    -11.11520952	     -5.17083684	      2.49101748	      0.90258975	      1.08500780	     16.62419619	     14.17675260	    -14.03732114	     39.01048509	      0.68086141	     15.87658060	     -3.15667218	    -19.17445644	     -6.88038402	     80.59510221	      1.40664989	      1.00695126
     11.76666667	      3.31389856	    -10.90789903	     -5.31748101	      2.48884735	      0.89872876	      1.08503955	     17.32293202	     13.95104552	    -13.68558753	     40.74261998	      0.71109286	     17.49475355	     -0.37352428	    -19.16791184	     -5.92487211	     82.75327694	      1.44431715	      1.85069858
     11.77333333	      2.96073176	    -10.77201599	     -5.37249586	      2.48682826	      0.89607824	      1.08500091	     17.28956404	     13.80765209	    -13.29349692	     41.97978933	      0.73268554	     19.03059374	      1.90477279	    -19.19027476	     -5.07448977	     84.52879675	      1.47530582	      2.65573104
     11.78000000	      2.57091742	    -10.55617029	     -5.30783530	      2.48489321	      0.89409729	      1.08484346	     17.09373577	     13.56087936	    -13.00473118	     42.83876652	      0.74767752	     20.41797649	      4.29519587	    -19.06150869	     -4.11050161	     86.02323573	      1.50138870	      3.31528231
     11.78666667	      2.23670789	    -10.28467018	     -5.13365107	      2.48312163	      0.89292209	      1.08453688	     16.62358373	     13.24353693	    -12.77712423	     43.30118504	      0.75574825	     21.58588403	      6.63465192	    -18.80194953	     -3.12343942	     87.18395633	      1.52164709	      3.88540856
     11.79333333	      2.03315148	     -9.96712946	     -4.87798378	      2.48159770	      0.89264052	      1.08414799	     15.78969506	     12.86011291	    -12.60786783	     43.36453147	      0.75685385	     22.56263895	      8.77542793	    -18.44328912	     -2.20876951	     87.97823368	      1.53550985	      4.38158907
